<svg width="393" height="852" viewBox="0 0 393 852" fill="none" xmlns="http://www.w3.org/2000/svg">
<g filter="url(#filter0_f_23_59)">
<path d="M313.264 233.452C367.033 103.756 -21.3723 128.459 -135.567 134.522C-249.761 140.585 -25.5531 224.74 17.9632 302.095C64.4975 384.814 -1.29632 491.161 82.0737 536.519C154.05 575.679 217.546 464.335 217.546 464.335C273.958 448.813 259.496 363.149 313.264 233.452Z" fill="#FFA1F5"/>
</g>
<g filter="url(#filter1_f_23_59)">
<path d="M239.723 651.568C182.599 551.604 104.131 573.677 53.5094 593.506C-34.2113 635.821 -213.028 745.456 42.5786 833.631C298.185 921.806 379.356 799.508 394.585 720.139C403.875 671.723 296.846 751.531 239.723 651.568Z" fill="#FFA1F5"/>
</g>
<g filter="url(#filter2_f_23_59)">
<path d="M194.551 97.3575C138.426 197.885 197.838 253.695 240.952 286.813C322.477 340.097 508.684 436.648 452.25 172.215C395.816 -92.2177 249.172 -98.6025 173.334 -70.6731C127.073 -53.6359 250.675 -3.16965 194.551 97.3575Z" fill="#FFA1F5"/>
</g>
<g filter="url(#filter3_f_23_59)">
<path d="M249.942 627.575C155.29 572.508 221.578 474.926 313.56 437.094C312.7 443.587 322.21 468.054 367.124 513.985C412.037 559.916 411.811 690.777 406.083 750.466C387.509 743.07 350.185 726.889 349.483 721.333C348.606 714.388 344.593 682.641 249.942 627.575Z" fill="#870FFF"/>
<path d="M249.942 627.575C155.29 572.508 221.578 474.926 313.56 437.094C312.7 443.587 322.21 468.054 367.124 513.985C412.037 559.916 411.811 690.777 406.083 750.466C387.509 743.07 350.185 726.889 349.483 721.333C348.606 714.388 344.593 682.641 249.942 627.575Z" stroke="black"/>
</g>
<g filter="url(#filter4_f_23_59)">
<path d="M12.9982 430.283C-76.882 492.836 -137.353 391.546 -132.812 292.191C-127.29 295.712 -101.095 297.421 -40.496 276.099C20.1031 254.777 138.633 310.233 190.323 340.626C175.777 354.341 145.35 381.343 140.017 379.634C133.351 377.497 102.878 367.731 12.9982 430.283Z" fill="#8B56C0"/>
<path d="M12.9982 430.283C-76.882 492.836 -137.353 391.546 -132.812 292.191C-127.29 295.712 -101.095 297.421 -40.496 276.099C20.1031 254.777 138.633 310.233 190.323 340.626C175.777 354.341 145.35 381.343 140.017 379.634C133.351 377.497 102.878 367.731 12.9982 430.283Z" stroke="black"/>
</g>
<g filter="url(#filter5_f_23_59)">
<path d="M43.1989 588.189C-55.1038 636.436 -99.5693 527.17 -80.0627 429.643C-75.1358 433.958 -49.5005 439.607 13.6252 427.69C76.751 415.773 185.537 488.509 232.039 526.366C215.586 537.724 181.428 559.817 176.415 557.321C170.148 554.202 141.502 539.941 43.1989 588.189Z" fill="#C85DF2"/>
<path d="M43.1989 588.189C-55.1038 636.436 -99.5693 527.17 -80.0627 429.643C-75.1358 433.958 -49.5005 439.607 13.6252 427.69C76.751 415.773 185.537 488.509 232.039 526.366C215.586 537.724 181.428 559.817 176.415 557.321C170.148 554.202 141.502 539.941 43.1989 588.189Z" stroke="black"/>
</g>
<g filter="url(#filter6_f_23_59)">
<path d="M298.354 326.56C382.229 256.159 451.585 351.584 456.021 450.944C450.203 447.936 423.961 448.595 365.531 475.293C307.101 501.992 184.054 457.448 129.834 431.839C143.085 416.869 170.953 387.234 176.418 388.455C183.25 389.982 214.48 396.961 298.354 326.56Z" fill="#E94DE1"/>
<path d="M298.354 326.56C382.229 256.159 451.585 351.584 456.021 450.944C450.203 447.936 423.961 448.595 365.531 475.293C307.101 501.992 184.054 457.448 129.834 431.839C143.085 416.869 170.953 387.234 176.418 388.455C183.25 389.982 214.48 396.961 298.354 326.56Z" stroke="black"/>
</g>
<g filter="url(#filter7_f_23_59)">
<path d="M57.2363 148.962C-41.0664 197.21 -85.5319 87.9438 -66.0253 -9.58304C-61.0984 -5.2686 -35.4631 0.381032 27.6627 -11.536C90.7884 -23.453 199.574 49.2822 246.076 87.1395C229.624 98.4977 195.465 120.59 190.452 118.095C184.186 114.975 155.539 100.714 57.2363 148.962Z" fill="#A85AD2"/>
<path d="M57.2363 148.962C-41.0664 197.21 -85.5319 87.9438 -66.0253 -9.58304C-61.0984 -5.2686 -35.4631 0.381032 27.6627 -11.536C90.7884 -23.453 199.574 49.2822 246.076 87.1395C229.624 98.4977 195.465 120.59 190.452 118.095C184.186 114.975 155.539 100.714 57.2363 148.962Z" stroke="black"/>
</g>
<defs>
<filter id="filter0_f_23_59" x="-217.628" y="78.6442" width="585.971" height="516.222" filterUnits="userSpaceOnUse" color-interpolation-filters="sRGB">
<feFlood flood-opacity="0" result="BackgroundImageFix"/>
<feBlend mode="normal" in="SourceGraphic" in2="BackgroundImageFix" result="shape"/>
<feGaussianBlur stdDeviation="25" result="effect1_foregroundBlur_23_59"/>
</filter>
<filter id="filter1_f_23_59" x="-139.463" y="526.541" width="584.615" height="387.724" filterUnits="userSpaceOnUse" color-interpolation-filters="sRGB">
<feFlood flood-opacity="0" result="BackgroundImageFix"/>
<feBlend mode="normal" in="SourceGraphic" in2="BackgroundImageFix" result="shape"/>
<feGaussianBlur stdDeviation="25" result="effect1_foregroundBlur_23_59"/>
</filter>
<filter id="filter2_f_23_59" x="112.737" y="-131.777" width="399.986" height="530.533" filterUnits="userSpaceOnUse" color-interpolation-filters="sRGB">
<feFlood flood-opacity="0" result="BackgroundImageFix"/>
<feBlend mode="normal" in="SourceGraphic" in2="BackgroundImageFix" result="shape"/>
<feGaussianBlur stdDeviation="25" result="effect1_foregroundBlur_23_59"/>
</filter>
<filter id="filter3_f_23_59" x="113.39" y="346.303" width="385.85" height="494.874" filterUnits="userSpaceOnUse" color-interpolation-filters="sRGB">
<feFlood flood-opacity="0" result="BackgroundImageFix"/>
<feBlend mode="normal" in="SourceGraphic" in2="BackgroundImageFix" result="shape"/>
<feGaussianBlur stdDeviation="45" result="effect1_foregroundBlur_23_59"/>
</filter>
<filter id="filter4_f_23_59" x="-223.552" y="180.839" width="504.703" height="359.217" filterUnits="userSpaceOnUse" color-interpolation-filters="sRGB">
<feFlood flood-opacity="0" result="BackgroundImageFix"/>
<feBlend mode="normal" in="SourceGraphic" in2="BackgroundImageFix" result="shape"/>
<feGaussianBlur stdDeviation="45" result="effect1_foregroundBlur_23_59"/>
</filter>
<filter id="filter5_f_23_59" x="-175.06" y="335.887" width="497.931" height="354.584" filterUnits="userSpaceOnUse" color-interpolation-filters="sRGB">
<feFlood flood-opacity="0" result="BackgroundImageFix"/>
<feBlend mode="normal" in="SourceGraphic" in2="BackgroundImageFix" result="shape"/>
<feGaussianBlur stdDeviation="45" result="effect1_foregroundBlur_23_59"/>
</filter>
<filter id="filter6_f_23_59" x="39.0183" y="211.788" width="507.54" height="362.243" filterUnits="userSpaceOnUse" color-interpolation-filters="sRGB">
<feFlood flood-opacity="0" result="BackgroundImageFix"/>
<feBlend mode="normal" in="SourceGraphic" in2="BackgroundImageFix" result="shape"/>
<feGaussianBlur stdDeviation="45" result="effect1_foregroundBlur_23_59"/>
</filter>
<filter id="filter7_f_23_59" x="-161.023" y="-103.339" width="497.931" height="354.584" filterUnits="userSpaceOnUse" color-interpolation-filters="sRGB">
<feFlood flood-opacity="0" result="BackgroundImageFix"/>
<feBlend mode="normal" in="SourceGraphic" in2="BackgroundImageFix" result="shape"/>
<feGaussianBlur stdDeviation="45" result="effect1_foregroundBlur_23_59"/>
</filter>
</defs>
</svg>
